/* XPM */
static char const* wmvoice_master_xpm[] = {
"64 75 7 1",
" 	c None",
".	c #000000",
"+	c #202020",
"@	c #C7C3C7",
"#	c #F7F3FF",
"$	c #86828E",
"%	c #AEAAAE",
"                                                                ",
"                                                                ",
"                                                                ",
"                                                                ",
"    ........................................................    ",
"    .++++++++++++++++++++++++++++++++++++++++++++++++++++++@    ",
"    .++++++++++++++++++++++++++++++++++++++++++++++++++++++@    ",
"    .++++++++++++++++++++++++++++++++++++++++++++++++++++++@    ",
"    .++++++++++++++++++++++++++++++++++++++++++++++++++++++@    ",
"    .++++++++++++++++++++++++++++++++++++++++++++++++++++++@    ",
"    .++++++++++++++++++++++++++++++++++++++++++++++++++++++@    ",
"    .++++++++++++++++++++++++++++++++++++++++++++++++++++++@    ",
"    .++++++++++++++++++++++++++++++++++++++++++++++++++++++@    ",
"    .++++++++++++++++++++++++++++++++++++++++++++++++++++++@    ",
"    .++++++++++++++++++++++++++++++++++++++++++++++++++++++@    ",
"    .++++++++++++++++++++++++++++++++++++++++++++++++++++++@    ",
"    .++++++++++++++++++++++++++++++++++++++++++++++++++++++@    ",
"    .++++++++++++++++++++++++++++++++++++++++++++++++++++++@    ",
"    .++++++++++++++++++++++++++++++++++++++++++++++++++++++@    ",
"    .++++++++++++++++++++++++++++++++++++++++++++++++++++++@    ",
"    .++++++++++++++++++++++++++++++++++++++++++++++++++++++@    ",
"    .++++++++++++++++++++++++++++++++++++++++++++++++++++++@    ",
"    .++++++++++++++++++++++++++++++++++++++++++++++++++++++@    ",
"    .++++++++++++++++++++++++++++++++++++++++++++++++++++++@    ",
"    .++++++++++++++++++++++++++++++++++++++++++++++++++++++@    ",
"    .++++++++++++++++++++++++++++++++++++++++++++++++++++++@    ",
"    .++++++++++++++++++++++++++++++++++++++++++++++++++++++@    ",
"    .++++++++++++++++++++++++++++++++++++++++++++++++++++++@    ",
"    .++++++++++++++++++++++++++++++++++++++++++++++++++++++@    ",
"    .++++++++++++++++++++++++++++++++++++++++++++++++++++++@    ",
"    .++++++++++++++++++++++++++++++++++++++++++++++++++++++@    ",
"    .++++++++++++++++++++++++++++++++++++++++++++++++++++++@    ",
"    .++++++++++++++++++++++++++++++++++++++++++++++++++++++@    ",
"    .++++++++++++++++++++++++++++++++++++++++++++++++++++++@    ",
"    .++++++++++++++++++++++++++++++++++++++++++++++++++++++@    ",
"    .++++++++++++++++++++++++++++++++++++++++++++++++++++++@    ",
"    .++++++++++++++++++++++++++++++++++++++++++++++++++++++@    ",
"    .++++++++++++++++++++++++++++++++++++++++++++++++++++++@    ",
"    .++++++++++++++++++++++++++++++++++++++++++++++++++++++@    ",
"    .++++++++++++++++++++++++++++++++++++++++++++++++++++++@    ",
"    .++++++++++++++++++++++++++++++++++++++++++++++++++++++@    ",
"    .++++++++++++++++++++++++++++++++++++++++++++++++++++++@    ",
"    .++++++++++++++++++++++++++++++++++++++++++++++++++++++@    ",
"    .++++++++++++++++++++++++++++++++++++++++++++++++++++++@    ",
"    @@@@@@@@@@@@@@@@@@@@@@@@@@@@@@@@@@@@@@@@@@@@@@@@@@@@@@@@    ",
"                                                                ",
"                                                                ",
"    ..............  ........................................    ",
"    .###########$@  .++++++++++++++++++++++++++++++++++++++@    ",
"    .#%%%%%%%%%%.@  .++++++++++++++++++++++++++++++++++++++@    ",
"    .#%%%%++%%%%.@  .++++++++++++++++++++++++++++++++++++++@    ",
"    .#%%%%++%%%%.@  .++++++++++++++++++++++++++++++++++++++@    ",
"    .#%%++++++%%.@  .++++++++++++++++++++++++++++++++++++++@    ",
"    .#%%+%++%+%%.@  .++++++++++++++++++++++++++++++++++++++@    ",
"    .#%%%+%%+%%%.@  .++++++++++++++++++++++++++++++++++++++@    ",
"    .#%%%%++%%%%.@  .++++++++++++++++++++++++++++++++++++++@    ",
"    .#%%%++++%%%.@  .++++++++++++++++++++++++++++++++++++++@    ",
"    .#%%%%%%%%%%.@  .++++++++++++++++++++++++++++++++++++++@    ",
"    .$...........@  .++++++++++++++++++++++++++++++++++++++@    ",
"    @@@@@@@@@@@@@@  @@@@@@@@@@@@@@@@@@@@@@@@@@@@@@@@@@@@@@@@    ",
"                                                                ",
"                                                                ",
"                                                                ",
"                                                                ",
"...........$###########$++++++++++++++++++++++++++++++++++++++++",
".%%%%%%%%%%##%%%%%%%%%%.++++++++++++++++++++++++++++++++++++++++",
".%%%%..%%%%##%%%%++%%%%.++++++++++++++++++++++++++++++++++++++++",
".%%%%..%%%%##%%%%++%%%%.++++++++++++++++++++++++++++++++++++++++",
".%%......%%##%%++++++%%.++++++++++++++++++++++++++++++++++++++++",
".%%.%..%.%%##%%+%++%+%%.++++++++++++++++++++++++++++++++++++++++",
".%%%.%%.%%%##%%%+%%+%%%.++++++++++++++++++++++++++++++++++++++++",
".%%%%..%%%%##%%%%++%%%%.++++++++++++++++++++++++++++++++++++++++",
".%%%....%%%##%%%++++%%%.++++++++++++++++++++++++++++++++++++++++",
".%%%%%%%%%%##%%%%%%%%%%.++++++++++++++++++++++++++++++++++++++++",
"$###########$...........++++++++++++++++++++++++++++++++++++++++"};
